<svg viewBox="0 0 88 88" xmlns="http://www.w3.org/2000/svg">
<rect width="88" height="88" fill="#ffffff"/>
<path d="M43.6493 35.12L34.4282 58.5675L20.9018 24.4666C20.7835 24.1257 20.7244 23.8048 20.7244 23.504C20.7244 22.742 21.168 22.391 22.0557 22.4512V22H12V22.4512C12.7493 22.4512 13.4788 22.6868 14.1886 23.1581C14.8984 23.6293 15.8051 25.2386 16.9096 27.986L32.4221 67H32.984L45.5563 35.12H43.6493Z" fill="#FFCE30"/>
<path d="M44.3507 53.88L53.5718 30.4325L67.0982 64.5334C67.2165 64.8743 67.2756 65.1952 67.2756 65.496C67.2756 66.258 66.832 66.609 65.9442 66.5488V67H76V66.5488C75.2507 66.5488 74.5212 66.3132 73.8114 65.8419C73.1015 65.3707 72.1949 63.7614 71.0904 61.014L55.5779 22H55.016L42.4437 53.88H44.3507Z" fill="#FFCE30"/>
</svg>
